<svg aria-hidden="true" style="position: absolute; width: 0; height: 0; overflow: hidden;" version="1.1" xmlns="http://www.w3.org/2000/svg" xmlns:xlink="http://www.w3.org/1999/xlink">
<defs>
<symbol id="icon-lemon_pictures" viewBox="0 0 155 32">
<path fill="#747474" style="fill: var(--color1, #747474)" d="M155.429 0h-84.231v0.4h84.231v-0.4z"></path>
<path fill="#747474" style="fill: var(--color1, #747474)" d="M155.429 31.45h-84.231v0.4h84.231v-0.4z"></path>
<path fill="#747474" style="fill: var(--color1, #747474)" d="M3.906 5.123h3.502v18.948h5.762v3.158h-9.264v-22.106z"></path>
<path fill="#747474" style="fill: var(--color1, #747474)" d="M16.671 14.439h4.807v3.158h-4.807v6.474h6.049v3.158h-9.551v-22.106h9.551v3.158h-6.049v6.158z"></path>
<path fill="#747474" style="fill: var(--color1, #747474)" d="M31.271 20.818l2.388-15.695h4.871v22.106h-3.311v-15.853l-2.419 15.853h-3.311l-2.61-15.632v15.632h-3.056v-22.106h4.871l2.579 15.695z"></path>
<path fill="#747474" style="fill: var(--color1, #747474)" d="M39.664 10.429c0-3.537 1.878-5.558 5.317-5.558s5.316 2.021 5.316 5.558v11.495c0 3.537-1.878 5.558-5.316 5.558s-5.317-2.021-5.317-5.558v-11.495zM43.166 22.145c0 1.579 0.7 2.179 1.815 2.179s1.815-0.6 1.815-2.179v-11.937c0-1.579-0.7-2.179-1.815-2.179s-1.815 0.6-1.815 2.179v11.937z"></path>
<path fill="#747474" style="fill: var(--color1, #747474)" d="M54.409 11.218v16.011h-3.152v-22.106h4.393l3.597 13.232v-13.232h3.12v22.106h-3.597l-4.361-16.011z"></path>
<path fill="#747474" style="fill: var(--color1, #747474)" d="M75.804 4.828c3.24 0 4.35 2.251 4.35 5.359v2.22c0 3.52-1.5 5.2-4.83 5.2h-3v9.417h-0.66v-22.195h4.14zM75.324 16.94c2.94 0 4.17-1.364 4.17-4.503v-2.283c0-2.727-0.87-4.661-3.69-4.661h-3.48v11.446h3z"></path>
<path fill="#747474" style="fill: var(--color1, #747474)" d="M84.024 4.828v22.195h-0.66v-22.195h0.66z"></path>
<path fill="#747474" style="fill: var(--color1, #747474)" d="M96.085 10.281v1.712h-0.66v-1.744c0-2.695-0.96-4.946-3.72-4.946-2.79 0-3.75 2.251-3.75 4.946v11.351c0 2.695 0.96 4.915 3.75 4.915 2.76 0 3.72-2.22 3.72-4.915v-2.441h0.66v2.41c0 3.076-1.2 5.612-4.41 5.612-3.18 0-4.38-2.537-4.38-5.612v-11.288c0-3.076 1.2-5.612 4.38-5.612 3.211 0 4.41 2.537 4.41 5.612z"></path>
<path fill="#747474" style="fill: var(--color1, #747474)" d="M103.256 27.023v-21.529h-4.56v-0.666h9.811v0.666h-4.591v21.529l-0.66 0z"></path>
<path fill="#747474" style="fill: var(--color1, #747474)" d="M111.867 21.569c0 2.663 0.9 4.978 3.69 4.978s3.69-2.314 3.69-4.978v-16.741h0.63v16.71c0 3.044-1.14 5.644-4.32 5.644-3.211 0-4.351-2.6-4.351-5.644v-16.71h0.66v16.741h0.001z"></path>
<path fill="#747474" style="fill: var(--color1, #747474)" d="M127.317 4.828c3.12 0 4.32 1.934 4.32 4.978v1.998c0 2.727-1.019 4.217-3.33 4.661 2.34 0.38 3.33 1.998 3.33 4.439v3.488c0 0.856 0.090 1.934 0.571 2.632h-0.72c-0.42-0.698-0.51-1.68-0.51-2.632v-3.488c0-3.266-1.86-4.122-4.59-4.122h-2.58v10.241h-0.66v-22.195h4.17zM126.387 16.115c2.91 0 4.59-0.793 4.59-4.217v-2.029c0-2.695-0.989-4.376-3.69-4.376h-3.48v10.622h2.58z"></path>
<path fill="#747474" style="fill: var(--color1, #747474)" d="M142.288 15.45v0.634h-6.181v10.273h7.351v0.666h-8.010v-22.195h8.010v0.666h-7.351v9.956l6.181 0z"></path>
<path fill="#747474" style="fill: var(--color1, #747474)" d="M155.398 10.186v0.412h-0.66v-0.444c0-2.632-0.93-4.851-3.66-4.851-2.76 0-3.69 2.188-3.69 4.819 0 5.676 8.040 5.517 8.040 11.541 0 3.076-1.2 5.517-4.411 5.517-3.18 0-4.38-2.441-4.38-5.517v-1.078h0.63v1.11c0 2.695 0.99 4.819 3.75 4.819s3.75-2.124 3.75-4.819c0-5.612-8.040-5.422-8.040-11.541 0-3.234 1.29-5.454 4.32-5.485 3.18-0 4.35 2.473 4.35 5.517z"></path>
</symbol>
<symbol id="icon-art_lemon" viewBox="0 0 201 32">
<path fill="#273443" style="fill: var(--color2, #273443)" d="M107.573 0v25.098h-5.146v-25.098h5.146zM84.928 12.859h3.535v-4.951h-3.534v-4.813l-5.147 1.547v3.266h-2.746v4.95h2.746v6.085c0 4.813 1.955 6.842 8.681 6.154v-4.676c-2.265 0.138-3.534 0-3.534-1.478v-6.084zM59.3 7.908v17.191h-5.148v-1.616c-1.132 1.306-2.813 2.097-5.112 2.097-4.495 0-8.201-3.954-8.201-9.076s3.706-9.076 8.201-9.076c2.299 0 3.98 0.791 5.112 2.097v-1.615h5.148zM54.152 16.502c0-2.579-1.715-4.194-4.083-4.194s-4.083 1.616-4.083 4.194c0 2.579 1.715 4.194 4.083 4.194s4.083-1.615 4.083-4.194zM74.429 13.409c-2.127-0.344-5.147 0.516-5.147 3.92v7.771h-5.146v-17.191h5.146v3.060c0.688-2.303 2.986-3.403 5.147-3.403v5.845zM121.126 20.972c-1.887 0-3.465-0.619-4.117-2.406h12.181c0.136-0.653 0.206-1.341 0.206-2.063 0-5.192-3.706-9.076-8.716-9.076-5.421 0-9.128 3.954-9.128 9.076s3.636 9.076 9.504 9.076c3.26 0 5.799-1.203 7.48-3.541l-4.116-2.372c-0.687 0.756-1.888 1.306-3.295 1.306zM120.645 11.999c1.544 0 3.089 0.722 3.637 2.716h-7.377c0.481-1.754 1.784-2.716 3.74-2.716zM159.108 14.544c0-4.298-2.573-7.118-6.522-7.118-2.437 0-4.014 0.894-4.975 2.269-0.96-1.444-2.47-2.269-4.494-2.269-2.299 0-3.808 0.894-4.597 2.063v-1.581h-5.147v17.191h5.147v-9.695c0-2.028 0.96-3.232 2.676-3.232 1.647 0 2.471 1.1 2.471 2.819v10.108h5.147v-9.695c0-2.028 0.961-3.232 2.676-3.232 1.647 0 2.471 1.1 2.471 2.819v10.108h5.147v-10.555zM171.938 7.426c5.044 0 9.094 3.954 9.094 9.076s-4.050 9.076-9.094 9.076c-5.043 0-9.093-3.953-9.093-9.076s4.050-9.076 9.093-9.076zM175.886 16.502c0-2.441-1.716-4.057-3.947-4.057-2.229 0-3.945 1.616-3.945 4.057s1.715 4.057 3.945 4.057c2.231 0 3.947-1.615 3.947-4.057zM201.481 25.098v-10.555c0-4.642-2.951-7.118-6.418-7.117-2.264 0-3.98 0.825-4.907 2.097v-1.616h-5.146v17.191h5.146v-9.386c0-2.441 1.305-3.541 3.192-3.541 1.647 0 2.985 0.997 2.985 3.129v9.799h5.147z"></path>
<path fill="#ffd400" style="fill: var(--color3, #ffd400)" d="M25.177 1.961h-10.451c-8.133 0-14.727 6.607-14.727 14.757v10.472c0 2.357 1.924 4.284 4.276 4.284h10.451c8.134 0 14.727-6.607 14.727-14.756v-10.471c0.001-2.357-1.924-4.285-4.276-4.285z"></path>
</symbol>
<symbol id="icon-lemon_school" viewBox="0 0 160 32">
<path fill="#e5e5e5" style="fill: var(--color4, #e5e5e5)" d="M148.617 0.595h-76.293c-1.64 0-2.97 1.272-2.97 2.842v12.393c0 1.57 1.33 2.842 2.97 2.842h76.293c1.64 0 2.969-1.272 2.969-2.842v-12.393c0-1.569-1.329-2.842-2.969-2.842z"></path>
<path fill="#747474" style="fill: var(--color1, #747474)" d="M7.824 15.293h-7.824v-11.348h3.058v8.796h4.767l-0.001 2.552z"></path>
<path fill="#747474" style="fill: var(--color1, #747474)" d="M18.455 15.293h-8.7v-11.348h8.7v2.552h-5.636v1.769h5.512v2.552h-5.512v1.923h5.636v2.552z"></path>
<path fill="#747474" style="fill: var(--color1, #747474)" d="M34.049 15.293h-3.058v-7.384l-3.006 7.384h-1.351l-2.986-7.384v7.384h-3.058v-11.348h4.248l2.472 6.158 2.489-6.158h4.25v11.348z"></path>
<path fill="#747474" style="fill: var(--color1, #747474)" d="M46.814 13.847c-1.197 1.101-2.707 1.651-4.529 1.65s-3.336-0.551-4.543-1.65c-1.204-1.1-1.805-2.506-1.805-4.219s0.602-3.119 1.805-4.219c1.202-1.1 2.716-1.65 4.543-1.65s3.336 0.55 4.529 1.65c1.197 1.101 1.796 2.507 1.796 4.219s-0.599 3.118-1.796 4.219zM42.286 12.911c0.959 0 1.735-0.312 2.329-0.935s0.89-1.406 0.889-2.348c0-0.94-0.296-1.723-0.889-2.348s-1.369-0.937-2.329-0.936c-0.972 0-1.755 0.312-2.348 0.936s-0.889 1.407-0.889 2.348c0 0.942 0.296 1.725 0.889 2.348s1.374 0.935 2.343 0.935h0.005z"></path>
<path fill="#747474" style="fill: var(--color1, #747474)" d="M61.535 15.293h-2.951l-5.015-6.567v6.567h-3.058v-11.348h3.147l4.8 6.244v-6.244h3.076v11.348z"></path>
<path fill="#747474" style="fill: var(--color1, #747474)" d="M66.515 15.020c-0.27 0.25-0.623 0.402-0.998 0.432s-0.749-0.066-1.058-0.269c-0.31-0.204-0.536-0.504-0.642-0.849s-0.082-0.715 0.065-1.046c0.147-0.331 0.409-0.603 0.742-0.771s0.716-0.22 1.084-0.148c0.368 0.072 0.7 0.263 0.937 0.542s0.368 0.627 0.368 0.987c0.001 0.21-0.042 0.417-0.128 0.61s-0.212 0.367-0.37 0.512z"></path>
<path fill="#747474" style="fill: var(--color1, #747474)" d="M78.592 15.497c-2.193 0-3.947-0.601-5.264-1.803l1.619-2.195c0.491 0.484 1.080 0.867 1.732 1.124s1.351 0.384 2.055 0.373c0.522 0 0.934-0.088 1.236-0.263s0.453-0.4 0.453-0.673c0-0.237-0.165-0.433-0.497-0.586-0.395-0.172-0.815-0.287-1.245-0.342-0.547-0.084-1.087-0.203-1.617-0.357-0.554-0.154-1.095-0.348-1.618-0.578-0.513-0.233-0.945-0.603-1.245-1.064-0.343-0.524-0.516-1.133-0.498-1.752 0-0.999 0.424-1.85 1.272-2.552s2-1.054 3.456-1.055c1.933 0 3.539 0.527 4.819 1.582l-1.669 2.093c-0.972-0.775-2.202-1.191-3.467-1.173-0.854 0-1.28 0.272-1.28 0.816 0 0.216 0.165 0.4 0.497 0.553 0.396 0.171 0.815 0.289 1.245 0.349 0.544 0.089 1.081 0.211 1.609 0.365 0.551 0.156 1.089 0.353 1.609 0.587 0.508 0.236 0.939 0.6 1.245 1.055 0.341 0.506 0.516 1.1 0.5 1.703 0 1.158-0.432 2.080-1.298 2.765s-2.082 1.029-3.65 1.029z"></path>
<path fill="#747474" style="fill: var(--color1, #747474)" d="M91.126 15.497c-1.838 0-3.366-0.547-4.587-1.642s-1.831-2.504-1.832-4.227c0-1.736 0.608-3.148 1.822-4.236s2.747-1.633 4.597-1.633c2.383 0 4.108 1.015 5.173 3.045l-2.63 1.192c-0.21-0.476-0.559-0.883-1.005-1.175-0.446-0.311-0.985-0.478-1.537-0.477-0.96 0-1.751 0.315-2.374 0.944s-0.933 1.41-0.933 2.34 0.311 1.71 0.933 2.339c0.622 0.629 1.413 0.944 2.373 0.944 0.552 0.001 1.090-0.165 1.537-0.476 0.446-0.291 0.795-0.699 1.006-1.175l2.63 1.194c-0.453 0.864-1.121 1.608-1.946 2.167-0.847 0.584-1.923 0.876-3.227 0.876z"></path>
<path fill="#747474" style="fill: var(--color1, #747474)" d="M109.013 15.293h-3.058v-4.561h-4.925v4.561h-3.058v-11.348h3.058v4.236h4.925v-4.236h3.058v11.348z"></path>
<path fill="#747474" style="fill: var(--color1, #747474)" d="M121.778 13.847c-1.197 1.101-2.707 1.651-4.529 1.65s-3.336-0.551-4.541-1.65c-1.203-1.1-1.805-2.506-1.805-4.219s0.602-3.119 1.805-4.219c1.202-1.1 2.716-1.65 4.541-1.65s3.336 0.55 4.529 1.65c1.196 1.101 1.795 2.507 1.796 4.219s-0.598 3.118-1.796 4.219zM117.249 12.911c0.961 0 1.737-0.312 2.33-0.935s0.889-1.406 0.889-2.348c0-0.94-0.296-1.723-0.889-2.348s-1.369-0.937-2.33-0.936c-0.971 0-1.753 0.312-2.345 0.936s-0.889 1.407-0.889 2.348c0 0.942 0.296 1.725 0.889 2.348s1.372 0.935 2.34 0.935h0.006z"></path>
<path fill="#747474" style="fill: var(--color1, #747474)" d="M135.753 13.847c-1.197 1.101-2.709 1.651-4.534 1.65s-3.338-0.551-4.54-1.65c-1.202-1.1-1.803-2.506-1.804-4.219s0.6-3.119 1.804-4.219c1.205-1.1 2.718-1.65 4.543-1.65s3.336 0.55 4.535 1.65c1.196 1.101 1.795 2.507 1.796 4.219s-0.6 3.118-1.8 4.219zM131.22 12.911c0.96 0 1.736-0.312 2.329-0.935s0.888-1.406 0.888-2.348c0-0.94-0.296-1.723-0.888-2.348s-1.369-0.937-2.329-0.936c-0.971 0-1.753 0.312-2.347 0.936s-0.889 1.407-0.889 2.348c0 0.942 0.296 1.725 0.889 2.348s1.375 0.935 2.347 0.935z"></path>
<path fill="#747474" style="fill: var(--color1, #747474)" d="M147.275 15.293h-7.824v-11.348h3.059v8.796h4.766l-0.001 2.552z"></path>
<path fill="#e5e5e5" style="fill: var(--color4, #e5e5e5)" d="M155.333 14.222l-36.564 2.424c-2.433 0.161-4.269 2.201-4.103 4.557l0.421 5.958c0.167 2.355 2.274 4.134 4.706 3.973l36.565-2.424c2.432-0.161 4.269-2.201 4.103-4.557l-0.421-5.958c-0.167-2.355-2.274-4.134-4.707-3.973z"></path>
<path fill="#747474" style="fill: var(--color1, #747474)" d="M129.886 26.928l-1.958 0.13-2.464-2.742-0.535 0.71 0.157 2.221-1.588 0.105-0.511-7.225 1.588-0.105 0.229 3.228 2.411-3.403 1.958-0.13-2.725 3.587 3.437 3.625z"></path>
<path fill="#747474" style="fill: var(--color1, #747474)" d="M132.143 26.778l-1.533 0.102-0.511-7.225 1.589-0.105 0.329 4.669 3.128-4.898 1.632-0.108 0.511 7.225-1.588 0.105-0.343-4.842-3.214 5.078z"></path>
<path fill="#747474" style="fill: var(--color1, #747474)" d="M144.039 25.99l-5.28 0.35-0.51-7.225 5.279-0.35 0.096 1.354-3.691 0.245 0.108 1.527 3.612-0.24 0.096 1.354-3.612 0.24 0.115 1.636 3.691-0.245 0.096 1.354z"></path>
<path fill="#747474" style="fill: var(--color1, #747474)" d="M149.33 25.639l-4.049 0.268-0.511-7.225 3.927-0.26c0.678-0.045 1.217 0.101 1.615 0.437 0.406 0.329 0.627 0.749 0.663 1.262 0.031 0.44-0.066 0.817-0.291 1.129s-0.519 0.517-0.878 0.613c0.407 0.031 0.76 0.207 1.060 0.528s0.465 0.706 0.498 1.153c0.039 0.563-0.118 1.042-0.472 1.435s-0.874 0.613-1.56 0.658zM148.554 21.337c0.268-0.018 0.475-0.104 0.622-0.259s0.212-0.348 0.195-0.579c-0.016-0.231-0.112-0.413-0.286-0.547-0.167-0.141-0.381-0.203-0.642-0.186l-1.992 0.132 0.111 1.571 1.992-0.132zM148.823 24.334c0.297-0.020 0.527-0.108 0.689-0.263 0.161-0.163 0.232-0.375 0.214-0.635-0.017-0.238-0.117-0.431-0.299-0.579-0.184-0.155-0.424-0.222-0.723-0.202l-2.047 0.136 0.119 1.679 2.048-0.136z"></path>
</symbol>
<symbol id="icon-bisness_m" viewBox="0 0 97 32">
<path fill="#747474" style="fill: var(--color1, #747474)" opacity="0.8" d="M14.807 2.286l14.807 14.807-14.807 14.807-14.807-14.807 14.807-14.807z"></path>
<path fill="#747474" style="fill: var(--color1, #747474)" d="M14.807 17.093h14.807l-14.807 14.807-14.807-14.807h14.807z"></path>
<path fill="#e5e5e5" style="fill: var(--color4, #e5e5e5)" d="M12.443 15.335h-3.030v1.217h1.091c0.799 0 1.431 0.18 1.898 0.54 0.469 0.357 0.704 0.839 0.704 1.446 0 0.61-0.233 1.101-0.699 1.472-0.463 0.368-1.080 0.555-1.851 0.561h-2.555v-6.286h4.443v1.049zM9.413 17.597v1.934h1.114c0.357 0 0.642-0.091 0.853-0.272 0.214-0.181 0.322-0.424 0.322-0.73 0-0.285-0.103-0.509-0.308-0.674-0.202-0.167-0.48-0.253-0.835-0.259h-1.147z"></path>
<path fill="#e5e5e5" style="fill: var(--color4, #e5e5e5)" d="M15.828 14.286l1.744 4.559 1.734-4.559h1.837v6.286h-1.403v-1.718l0.14-2.966-1.832 4.684h-0.96l-1.828-4.68 0.14 2.962v1.718h-1.399v-6.286h1.828z"></path>
<path fill="#747474" style="fill: var(--color1, #747474)" d="M42.205 12.067h-3.063v1.297h1.102c0.807 0 1.447 0.192 1.918 0.575 0.474 0.38 0.712 0.894 0.712 1.541 0 0.65-0.236 1.173-0.707 1.569-0.468 0.392-1.092 0.592-1.871 0.598h-2.582v-6.697h4.49v1.118zM39.142 14.477v2.061h1.126c0.361 0 0.649-0.097 0.862-0.29 0.217-0.193 0.325-0.452 0.325-0.777 0-0.304-0.104-0.543-0.311-0.718-0.204-0.178-0.485-0.27-0.843-0.276h-1.159z"></path>
<path fill="#747474" style="fill: var(--color1, #747474)" d="M47.892 10.949h1.418v6.697h-1.418v-4.448l-2.747 4.448h-1.413v-6.697h1.413v4.457l2.747-4.457z"></path>
<path fill="#747474" style="fill: var(--color1, #747474)" d="M53.918 12.794c0-0.255-0.102-0.454-0.306-0.598-0.204-0.147-0.474-0.221-0.81-0.221-0.302 0-0.553 0.074-0.754 0.221-0.198 0.144-0.297 0.333-0.297 0.566h-1.413c0-0.362 0.104-0.687 0.311-0.975 0.21-0.291 0.507-0.518 0.891-0.681 0.386-0.162 0.807-0.244 1.263-0.244 0.792 0 1.412 0.166 1.861 0.497s0.674 0.8 0.674 1.408c0 0.297-0.093 0.573-0.278 0.828-0.182 0.255-0.443 0.458-0.782 0.612 0.377 0.129 0.666 0.325 0.867 0.589 0.201 0.261 0.302 0.586 0.302 0.975 0 0.601-0.242 1.079-0.726 1.435-0.481 0.353-1.12 0.529-1.918 0.529-0.499 0-0.949-0.083-1.348-0.248-0.399-0.169-0.702-0.397-0.909-0.685-0.204-0.291-0.306-0.629-0.306-1.012h1.423c0 0.239 0.107 0.44 0.32 0.603 0.214 0.159 0.487 0.239 0.82 0.239 0.377 0 0.674-0.083 0.891-0.248 0.22-0.166 0.33-0.376 0.33-0.63 0-0.35-0.097-0.6-0.292-0.75-0.195-0.153-0.479-0.23-0.853-0.23h-0.843v-1.081h0.872c0.675-0.009 1.013-0.308 1.013-0.897z"></path>
<path fill="#747474" style="fill: var(--color1, #747474)" d="M62.074 17.646h-1.414v-2.87h-2.756v2.87h-1.414v-6.697h1.414v2.714h2.756v-2.714h1.414v6.697z"></path>
<path fill="#747474" style="fill: var(--color1, #747474)" d="M67.441 14.744h-2.714v1.794h3.185v1.108h-4.598v-6.697h4.589v1.118h-3.176v1.596h2.714v1.081z"></path>
<path fill="#747474" style="fill: var(--color1, #747474)" d="M74.126 15.415c-0.054 0.721-0.327 1.288-0.82 1.702-0.49 0.414-1.137 0.621-1.941 0.621-0.879 0-1.572-0.288-2.078-0.865-0.503-0.58-0.754-1.374-0.754-2.383v-0.409c0-0.644 0.116-1.211 0.349-1.702s0.563-0.866 0.994-1.127c0.433-0.264 0.936-0.396 1.507-0.396 0.791 0 1.429 0.207 1.913 0.621s0.763 0.995 0.838 1.743h-1.413c-0.035-0.432-0.159-0.745-0.373-0.938-0.21-0.196-0.532-0.294-0.966-0.294-0.471 0-0.825 0.166-1.060 0.497-0.233 0.328-0.352 0.839-0.358 1.532v0.506c0 0.724 0.111 1.253 0.335 1.587 0.226 0.334 0.581 0.501 1.065 0.501 0.437 0 0.762-0.097 0.975-0.29 0.217-0.196 0.341-0.498 0.372-0.906h1.414z"></path>
<path fill="#747474" style="fill: var(--color1, #747474)" d="M39.575 19.085l1.762 4.857 1.753-4.857h1.856v6.697h-1.418v-1.831l0.141-3.16-1.852 4.991h-0.971l-1.847-4.986 0.141 3.155v1.831h-1.414v-6.697h1.847z"></path>
<path fill="#747474" style="fill: var(--color1, #747474)" d="M51.816 22.585c0 0.659-0.119 1.237-0.358 1.734s-0.581 0.88-1.027 1.15c-0.443 0.27-0.952 0.405-1.527 0.405-0.569 0-1.076-0.133-1.522-0.4s-0.792-0.647-1.037-1.141c-0.245-0.497-0.369-1.067-0.372-1.711v-0.331c0-0.659 0.121-1.239 0.363-1.739 0.245-0.503 0.589-0.888 1.032-1.155 0.446-0.27 0.955-0.405 1.527-0.405s1.079 0.135 1.522 0.405c0.446 0.267 0.79 0.652 1.032 1.155 0.245 0.5 0.368 1.078 0.368 1.734v0.299zM50.384 22.282c0-0.702-0.129-1.236-0.386-1.601s-0.625-0.547-1.102-0.547c-0.474 0-0.84 0.181-1.098 0.543-0.258 0.359-0.388 0.886-0.391 1.582v0.327c0 0.684 0.129 1.214 0.386 1.591s0.628 0.566 1.112 0.566c0.474 0 0.839-0.181 1.093-0.543 0.254-0.365 0.383-0.895 0.386-1.591v-0.327z"></path>
<path fill="#747474" style="fill: var(--color1, #747474)" d="M58.271 19.085v6.697h-1.418v-5.579h-1.828l-0.113 2.364c-0.047 0.797-0.151 1.426-0.311 1.886-0.16 0.457-0.394 0.793-0.702 1.007-0.308 0.212-0.729 0.319-1.263 0.322h-0.368v-1.108l0.236-0.023c0.355-0.046 0.608-0.245 0.759-0.598 0.154-0.356 0.251-0.987 0.292-1.895l0.118-3.073h4.599z"></path>
<path fill="#747474" style="fill: var(--color1, #747474)" d="M65.141 22.585c0 0.659-0.119 1.237-0.358 1.734s-0.581 0.88-1.027 1.15c-0.443 0.27-0.952 0.405-1.527 0.405-0.569 0-1.076-0.133-1.522-0.4s-0.791-0.647-1.037-1.141c-0.245-0.497-0.369-1.067-0.373-1.711v-0.331c0-0.659 0.121-1.239 0.363-1.739 0.245-0.503 0.589-0.888 1.032-1.155 0.446-0.27 0.955-0.405 1.527-0.405s1.079 0.135 1.522 0.405c0.446 0.267 0.79 0.652 1.032 1.155 0.245 0.5 0.367 1.078 0.367 1.734v0.299zM63.709 22.282c0-0.702-0.129-1.236-0.386-1.601s-0.625-0.547-1.102-0.547c-0.474 0-0.841 0.181-1.098 0.543-0.257 0.359-0.387 0.886-0.391 1.582v0.327c0 0.684 0.129 1.214 0.386 1.591s0.629 0.566 1.112 0.566c0.474 0 0.839-0.181 1.093-0.543 0.254-0.365 0.383-0.895 0.386-1.591v-0.327z"></path>
<path fill="#747474" style="fill: var(--color1, #747474)" d="M72.369 27.429h-1.305v-1.647h-4.137v1.642h-1.338l-0.075-2.751h0.518c0.279-0.227 0.495-0.56 0.646-0.998 0.154-0.442 0.258-0.987 0.311-1.637l0.198-2.953h4.495v5.589h0.801l-0.113 2.755zM67.653 24.673h2.615v-4.471h-1.739l-0.118 1.762c-0.094 1.181-0.347 2.084-0.758 2.709z"></path>
<path fill="#747474" style="fill: var(--color1, #747474)" d="M78.749 22.585c0 0.659-0.119 1.237-0.358 1.734s-0.581 0.88-1.027 1.15c-0.443 0.27-0.952 0.405-1.527 0.405-0.569 0-1.076-0.133-1.522-0.4s-0.791-0.647-1.037-1.141c-0.245-0.497-0.369-1.067-0.373-1.711v-0.331c0-0.659 0.121-1.239 0.363-1.739 0.245-0.503 0.589-0.888 1.032-1.155 0.446-0.27 0.955-0.405 1.527-0.405s1.079 0.135 1.522 0.405c0.446 0.267 0.79 0.652 1.032 1.155 0.245 0.5 0.367 1.078 0.367 1.734v0.299zM77.316 22.282c0-0.702-0.129-1.236-0.386-1.601s-0.625-0.547-1.102-0.547c-0.475 0-0.841 0.181-1.098 0.543-0.257 0.359-0.388 0.886-0.391 1.582v0.327c0 0.684 0.129 1.214 0.386 1.591s0.628 0.566 1.112 0.566c0.474 0 0.839-0.181 1.093-0.543 0.254-0.365 0.383-0.895 0.386-1.591v-0.327z"></path>
<path fill="#747474" style="fill: var(--color1, #747474)" d="M85.161 23.551c-0.054 0.721-0.327 1.288-0.82 1.702-0.49 0.414-1.137 0.621-1.941 0.621-0.879 0-1.572-0.288-2.078-0.865-0.503-0.58-0.754-1.374-0.754-2.383v-0.409c0-0.644 0.117-1.211 0.349-1.702s0.563-0.866 0.994-1.127c0.434-0.264 0.936-0.396 1.508-0.396 0.791 0 1.429 0.207 1.913 0.621s0.763 0.995 0.838 1.743h-1.413c-0.035-0.432-0.159-0.745-0.373-0.938-0.21-0.196-0.532-0.294-0.966-0.294-0.471 0-0.825 0.166-1.060 0.497-0.233 0.328-0.352 0.839-0.358 1.532v0.506c0 0.724 0.111 1.253 0.334 1.587 0.226 0.334 0.581 0.501 1.065 0.501 0.437 0 0.762-0.097 0.975-0.29 0.217-0.196 0.341-0.498 0.372-0.906h1.414z"></path>
<path fill="#747474" style="fill: var(--color1, #747474)" d="M91.112 20.202h-2.102v5.579h-1.413v-5.579h-2.073v-1.118h5.588v1.118z"></path>
<path fill="#747474" style="fill: var(--color1, #747474)" d="M93.411 21.5h1.102c0.807 0 1.446 0.192 1.918 0.575 0.474 0.38 0.711 0.894 0.711 1.541 0 0.65-0.235 1.173-0.707 1.569-0.468 0.392-1.091 0.592-1.87 0.598h-2.578v-6.697h1.423v2.415zM93.411 22.613v2.061h1.126c0.361 0 0.649-0.097 0.862-0.29 0.217-0.193 0.325-0.452 0.325-0.777 0-0.304-0.103-0.543-0.311-0.718-0.204-0.178-0.485-0.27-0.843-0.276h-1.159z"></path>
</symbol>
<symbol id="icon-prizma_club" viewBox="0 0 101 32">
<path fill="#747474" style="fill: var(--color1, #747474)" d="M1.014 24.333l-1.014-0.492 0.317-16.367 0.338-0.141 0.36 17z"></path>
<path fill="#747474" style="fill: var(--color1, #747474)" d="M2.028 25.333l-0.676-0.479 0.24-18.063 0.183-0.124 0.254 18.667z"></path>
<path fill="#747474" style="fill: var(--color1, #747474)" d="M3.381 26l-0.676-0.492 0.245-19.385 0.173-0.123 0.259 20z"></path>
<path fill="#747474" style="fill: var(--color1, #747474)" d="M4.733 26.667l-0.676-0.472 0.273-20.775 0.144-0.087 0.259 21.333z"></path>
<path fill="#747474" style="fill: var(--color1, #747474)" d="M6.085 27.333l-0.676-0.476 0.279-22.435 0.118-0.088 0.28 23z"></path>
<path fill="#747474" style="fill: var(--color1, #747474)" d="M7.437 28.333l-1.014-0.462 0.442-24.134 0.132-0.071 0.44 24.667z"></path>
<path fill="#747474" style="fill: var(--color1, #747474)" d="M8.789 29l-1.014-0.459 0.429-25.489 0.113-0.052 0.473 26z"></path>
<path fill="#747474" style="fill: var(--color1, #747474)" d="M10.142 29.667l-1.014-0.44 0.461-26.859 0.092-0.034 0.462 27.333z"></path>
<path fill="#747474" style="fill: var(--color1, #747474)" d="M11.156 30.333l-0.676-0.42 0.331-28.229 0.031-0.017 0.315 28.667z"></path>
<path fill="#747474" style="fill: var(--color1, #747474)" d="M12.508 31l-0.676-0.422 0.329-29.894 0.033-0.017 0.314 30.333z"></path>
<path fill="#747474" style="fill: var(--color1, #747474)" d="M13.86 32l-0.676-0.425 0.33-31.575 0.346 32z"></path>
<path fill="#747474" style="fill: var(--color1, #747474)" d="M15.213 31.279l-0.676 0.388 0.347-31.333 0.33 30.946z"></path>
<path fill="#747474" style="fill: var(--color1, #747474)" d="M16.565 30.646l-0.676 0.354 0.319-30 0.039 0.018 0.319 29.627z"></path>
<path fill="#747474" style="fill: var(--color1, #747474)" d="M17.917 29.666l-0.676 0.334 0.308-28.333 0.040 0.017 0.328 27.982z"></path>
<path fill="#747474" style="fill: var(--color1, #747474)" d="M18.931 29.054l-0.338 0.28 0.158-26.667 0.022 0.034 0.158 26.353z"></path>
<path fill="#747474" style="fill: var(--color1, #747474)" d="M20.283 28.403l-0.338 0.264 0.143-25.333 0.052 0.035 0.142 25.035z"></path>
<path fill="#747474" style="fill: var(--color1, #747474)" d="M21.636 27.77l-0.338 0.23 0.147-24 0.059 0.036 0.132 23.734z"></path>
<path fill="#747474" style="fill: var(--color1, #747474)" d="M22.988 26.79l-0.338 0.21 0.129-22.333 0.065 0.036 0.144 22.088z"></path>
<path fill="#747474" style="fill: var(--color1, #747474)" d="M24.34 26.141l-0.338 0.192 0.124-20.667 0.071 0.035 0.143 20.439z"></path>
<path fill="#747474" style="fill: var(--color1, #747474)" d="M25.354 25.508l-0.338 0.158 0.127-19.333 0.085 0.053 0.126 19.122z"></path>
<path fill="#747474" style="fill: var(--color1, #747474)" d="M26.706 24.528l-0.338 0.139 0.12-17.667 0.096 0.034 0.122 17.493z"></path>
<path fill="#747474" style="fill: var(--color1, #747474)" d="M28.059 23.876l-0.338 0.124 0.112-16.333 0.114 0.053 0.112 16.157z"></path>
<path fill="#747474" style="fill: var(--color1, #747474)" d="M40.65 10.021c-0.432-0.461-1.091-0.687-1.969-0.687h-2.847v7.667h1.462v-3.119h1.385c0.887 0 1.543-0.226 1.969-0.683 0.394-0.415 0.592-0.943 0.593-1.585 0-0.645-0.199-1.173-0.593-1.592zM39.535 12.256c-0.19 0.207-0.493 0.311-0.921 0.311h-1.318v-1.921h1.318c0.428 0 0.731 0.104 0.921 0.311 0.163 0.179 0.252 0.415 0.247 0.658 0.003 0.238-0.085 0.468-0.247 0.641z"></path>
<path fill="#747474" style="fill: var(--color1, #747474)" d="M46.762 13.751c0.355-0.093 0.68-0.282 0.939-0.547 0.394-0.429 0.605-1.001 0.588-1.589 0-0.649-0.198-1.177-0.588-1.585-0.432-0.466-1.080-0.696-1.954-0.696h-2.814v7.667h1.447v-3.124h0.742l2.439 3.122h1.795l-2.594-3.247zM45.682 12.565h-1.301v-1.916h1.301c0.419 0 0.724 0.104 0.912 0.311 0.16 0.178 0.249 0.411 0.249 0.653s-0.089 0.475-0.249 0.653c-0.188 0.199-0.494 0.299-0.912 0.299z"></path>
<path fill="#747474" style="fill: var(--color1, #747474)" d="M50.708 9.333v7.667h1.352v-7.667h-1.352z"></path>
<path fill="#747474" style="fill: var(--color1, #747474)" d="M55.656 15.688l3.63-5.48v-0.875h-5.217v1.313h3.3l-3.618 5.479v0.875h5.747v-1.312h-3.842z"></path>
<path fill="#747474" style="fill: var(--color1, #747474)" d="M67.572 9.333l-2.833 4.59-2.832-4.59h-1.057v7.667h1.497v-4.273l1.866 3.014h1.044l1.867-3.014v4.273h1.501v-7.667h-1.053z"></path>
<path fill="#747474" style="fill: var(--color1, #747474)" d="M73.865 9.333h-1.013l-3.212 7.667h1.508l0.709-1.696h3.006l0.709 1.696h1.506l-3.212-7.667zM72.4 13.991l0.953-2.269 0.953 2.269h-1.907z"></path>
<path fill="#747474" style="fill: var(--color1, #747474)" d="M76.739 9.333l3.276 7.667h20.726v-7.667h-24.002zM85.464 15.036c-0.304 0.142-0.636 0.213-0.972 0.207-0.282 0.010-0.564-0.038-0.827-0.14s-0.503-0.258-0.705-0.456c-0.196-0.193-0.35-0.423-0.452-0.678s-0.153-0.528-0.146-0.803c-0.008-0.274 0.041-0.547 0.145-0.801s0.258-0.484 0.454-0.675c0.398-0.399 0.905-0.596 1.522-0.596 0.271-0.008 0.54 0.039 0.793 0.137s0.483 0.246 0.677 0.435l-0.501 0.531c-0.126-0.133-0.277-0.239-0.445-0.31s-0.35-0.107-0.532-0.105c-0.178-0.003-0.355 0.031-0.519 0.1s-0.312 0.173-0.434 0.303c-0.251 0.263-0.389 0.616-0.382 0.981-0.004 0.183 0.028 0.364 0.096 0.533s0.168 0.324 0.297 0.453 0.281 0.231 0.45 0.3c0.169 0.068 0.35 0.102 0.532 0.098 0.22 0.006 0.439-0.041 0.636-0.138s0.37-0.241 0.5-0.42l0.536 0.481c-0.196 0.238-0.442 0.429-0.721 0.559v0.002zM89.228 15.18h-2.471v-4.035h0.776v3.345h1.695v0.689zM93.251 13.479c0 0.586-0.172 1.036-0.516 1.348-0.31 0.279-0.713 0.415-1.207 0.415s-0.895-0.135-1.207-0.415c-0.344-0.312-0.516-0.761-0.516-1.348v-2.333h0.776v2.394c0 0.336 0.087 0.586 0.263 0.75 0.189 0.168 0.433 0.261 0.685 0.261s0.496-0.093 0.685-0.261c0.172-0.164 0.263-0.415 0.263-0.75v-2.394h0.776l-0.002 2.333zM96.763 14.819c-0.239 0.241-0.594 0.361-1.054 0.361h-1.568v-4.035h1.365c0.388 0 0.69 0.096 0.905 0.283 0.119 0.099 0.213 0.224 0.278 0.364s0.098 0.294 0.096 0.449c-0.002 0.13-0.028 0.259-0.076 0.38-0.043 0.109-0.105 0.21-0.182 0.299 0.183 0.092 0.335 0.236 0.436 0.415 0.111 0.188 0.169 0.403 0.167 0.622 0.001 0.162-0.031 0.323-0.094 0.472s-0.157 0.283-0.274 0.394l0.002-0.003zM95.695 13.392h-0.776v1.096h0.776c0.234 0 0.407-0.057 0.516-0.177 0.095-0.1 0.146-0.233 0.144-0.37 0.001-0.136-0.050-0.267-0.144-0.365-0.069-0.065-0.151-0.115-0.24-0.146s-0.184-0.043-0.279-0.035l0.002-0.003zM95.902 12.556c0.070-0.076 0.108-0.176 0.108-0.279 0-0.109-0.041-0.213-0.115-0.292-0.058-0.052-0.126-0.092-0.2-0.117s-0.152-0.034-0.231-0.027h-0.546v0.865h0.546c0.078 0.007 0.156-0.003 0.231-0.028s0.142-0.065 0.2-0.118l0.007-0.003z"></path>
<path fill="#747474" style="fill: var(--color1, #747474)" d="M37.524 22h-0.447l-0.7-0.983-0.18 0.239v0.745h-0.364v-2.333h0.364v1.113l0.811-1.113h0.452l-0.843 1.101 0.907 1.232z"></path>
<path fill="#747474" style="fill: var(--color1, #747474)" d="M38.201 22v-0.357c0.056 0.003 0.112-0.010 0.162-0.038s0.092-0.069 0.121-0.119c0.063-0.104 0.112-0.318 0.147-0.641l0.124-1.178h1.475v2.292h-0.38v-1.938h-0.749l-0.091 0.852c-0.018 0.198-0.053 0.394-0.105 0.585-0.033 0.128-0.095 0.246-0.179 0.345-0.063 0.071-0.142 0.124-0.228 0.157-0.096 0.030-0.196 0.044-0.295 0.041z"></path>
<path fill="#747474" style="fill: var(--color1, #747474)" d="M41.384 21.999c-0.088 0-0.176-0.016-0.259-0.047-0.067-0.021-0.128-0.059-0.179-0.11l0.135-0.331c0.074 0.079 0.173 0.126 0.278 0.13 0.071 0.005 0.14-0.018 0.197-0.064 0.064-0.065 0.115-0.142 0.152-0.227l-0.803-1.682h0.425l0.589 1.335 0.59-1.335h0.425l-0.889 1.86c-0.061 0.137-0.15 0.257-0.259 0.352-0.118 0.086-0.258 0.128-0.4 0.12z"></path>
<path fill="#747474" style="fill: var(--color1, #747474)" d="M43.947 19.667h1.508v0.36h-1.122v0.51h0.58c0.097-0.006 0.195 0.010 0.286 0.046s0.175 0.093 0.244 0.165c0.124 0.141 0.193 0.327 0.193 0.52s-0.069 0.379-0.193 0.52c-0.070 0.072-0.153 0.128-0.244 0.165s-0.189 0.052-0.286 0.046h-0.967v-2.332zM44.861 20.897h-0.531v0.742h0.531c0.099 0.004 0.196-0.032 0.271-0.102 0.034-0.035 0.060-0.077 0.078-0.123s0.028-0.096 0.028-0.146c0-0.050-0.009-0.099-0.028-0.146s-0.045-0.088-0.078-0.123c-0.074-0.070-0.171-0.107-0.271-0.102z"></path>
<path fill="#747474" style="fill: var(--color1, #747474)" d="M49.694 22h-0.408v-1.973h-1.212v1.973h-0.408v-2.333h2.028v2.333z"></path>
<path fill="#747474" style="fill: var(--color1, #747474)" d="M50.757 22h-0.386v-2.332h0.967c0.097-0.006 0.195 0.009 0.286 0.045s0.175 0.092 0.245 0.164c0.124 0.141 0.193 0.327 0.193 0.52s-0.069 0.379-0.193 0.52c-0.069 0.073-0.152 0.13-0.244 0.166s-0.189 0.052-0.287 0.046h-0.58v0.87zM51.287 20.763c0.099 0.004 0.196-0.032 0.271-0.101 0.067-0.071 0.105-0.168 0.105-0.269s-0.038-0.198-0.105-0.269c-0.075-0.069-0.172-0.105-0.271-0.101h-0.531v0.741h0.531z"></path>
<path fill="#747474" style="fill: var(--color1, #747474)" d="M54.427 22h-1.352v-2.333h1.352v0.36h-1.006v0.605h0.985v0.36h-0.985v0.648h1.006v0.36z"></path>
<path fill="#747474" style="fill: var(--color1, #747474)" d="M55.103 22.333v-0.726c0.076-0.003 0.15-0.027 0.214-0.067 0.067-0.060 0.115-0.138 0.14-0.224 0.053-0.16 0.087-0.325 0.102-0.493l0.134-1.157h1.563v1.904h0.214v0.76h-0.404v-0.416h-1.562v0.416l-0.4 0.003zM55.959 20.851c-0.040 0.334-0.141 0.573-0.304 0.72h1.197v-1.556h-0.794l-0.099 0.837z"></path>
<path fill="#747474" style="fill: var(--color1, #747474)" d="M60.174 22h-0.408v-1.973h-1.211v1.973h-0.409v-2.333h2.028v2.333z"></path>
<path fill="#747474" style="fill: var(--color1, #747474)" d="M61.575 22h-0.386v-2.332h0.967c0.097-0.006 0.195 0.009 0.286 0.045s0.175 0.092 0.245 0.164c0.124 0.141 0.193 0.327 0.193 0.52s-0.069 0.379-0.193 0.52c-0.070 0.073-0.153 0.13-0.244 0.166s-0.189 0.052-0.287 0.046h-0.58v0.87zM62.105 20.763c0.099 0.004 0.196-0.032 0.271-0.101 0.033-0.035 0.060-0.077 0.078-0.123s0.028-0.096 0.028-0.146c0-0.050-0.009-0.1-0.028-0.146s-0.045-0.088-0.078-0.123c-0.075-0.069-0.172-0.106-0.271-0.101h-0.53v0.741h0.53z"></path>
<path fill="#747474" style="fill: var(--color1, #747474)" d="M63.951 22h-0.396v-2.332h0.408v1.618l1.198-1.619h0.422v2.332h-0.411v-1.664l-1.221 1.665z"></path>
<path fill="#747474" style="fill: var(--color1, #747474)" d="M68.287 22h-0.34v-1.018h-1.010v1.018h-0.34v-2.333h0.34v0.955h1.010v-0.955h0.34v2.333z"></path>
<path fill="#747474" style="fill: var(--color1, #747474)" d="M69.633 22h-0.331v-2.332h0.343v1.618l0.997-1.619h0.351v2.332h-0.343v-1.664l-1.017 1.665z"></path>
<path fill="#747474" style="fill: var(--color1, #747474)" d="M74.373 21.995h-0.4v-1.724l-0.7 1.728h-0.17l-0.697-1.728v1.728h-0.399v-2.333h0.564l0.618 1.533 0.622-1.533h0.564v2.329z"></path>
<path fill="#747474" style="fill: var(--color1, #747474)" d="M77.415 22h-0.47l-0.173-0.45h-1.081l-0.172 0.45h-0.47l0.925-2.333h0.516l0.926 2.333zM76.655 21.192l-0.424-1.113-0.424 1.113h0.847z"></path>
<path fill="#747474" style="fill: var(--color1, #747474)" d="M78.796 22h-0.38v-1.973h-0.663v-0.36h1.69v0.36h-0.647v1.973z"></path>
<path fill="#747474" style="fill: var(--color1, #747474)" d="M81.81 22h-1.352v-2.333h1.352v0.36h-1.006v0.605h0.985v0.36h-0.985v0.648h1.006v0.36z"></path>
<path fill="#747474" style="fill: var(--color1, #747474)" d="M82.486 22v-0.357c0.056 0.003 0.111-0.010 0.161-0.038s0.091-0.069 0.121-0.119c0.064-0.104 0.112-0.317 0.146-0.641l0.127-1.178h1.473v2.292h-0.382v-1.938h-0.751l-0.091 0.852c-0.017 0.198-0.052 0.394-0.105 0.585-0.033 0.128-0.094 0.246-0.178 0.345-0.063 0.071-0.142 0.124-0.228 0.157-0.095 0.030-0.194 0.044-0.293 0.041z"></path>
<path fill="#747474" style="fill: var(--color1, #747474)" d="M87.218 22h-1.69v-2.333h1.69v0.36h-1.257v0.605h1.231v0.36h-1.231v0.648h1.257v0.36z"></path>
<path fill="#747474" style="fill: var(--color1, #747474)" d="M88.291 22h-0.396v-2.145h0.414v1.489l1.195-1.49h0.42v2.145h-0.41v-1.531l-1.222 1.532zM89.52 19.462c-0.069 0.090-0.161 0.163-0.267 0.213s-0.226 0.074-0.345 0.070c-0.12 0.003-0.239-0.022-0.347-0.071s-0.2-0.122-0.27-0.212l0.168-0.128c0.050 0.066 0.118 0.12 0.197 0.156s0.166 0.054 0.254 0.051c0.087 0.003 0.174-0.015 0.251-0.051s0.144-0.090 0.193-0.156l0.166 0.128z"></path>
</symbol>
<symbol id="icon-isksstvo" viewBox="0 0 256 32">
<path fill="#747474" style="fill: var(--color1, #747474)" d="M0 31.251v-29.186h3.528v29.186h-3.528z"></path>
<path fill="#747474" style="fill: var(--color1, #747474)" d="M15.996 22.673h3.491c0.429 3.913 2.953 5.867 7.572 5.864 2.003 0 3.56-0.4 4.674-1.199s1.67-2.002 1.67-3.607c0.016-0.741-0.142-1.477-0.46-2.148-0.289-0.593-0.722-1.105-1.26-1.491-0.578-0.396-1.194-0.734-1.84-1.008-0.727-0.307-1.482-0.545-2.254-0.711-0.796-0.174-1.615-0.379-2.452-0.607l-2.475-0.679c-0.785-0.211-1.541-0.517-2.249-0.912-0.668-0.379-1.286-0.838-1.84-1.368-0.565-0.558-0.997-1.234-1.265-1.979-0.321-0.892-0.476-1.835-0.46-2.782 0-2.554 0.834-4.583 2.502-6.088s3.979-2.265 6.932-2.28c3.067 0 5.502 0.772 7.305 2.317s2.835 3.755 3.096 6.631h-3.551c-0.386-3.885-2.651-5.828-6.794-5.828-0.953-0.018-1.903 0.121-2.811 0.411-0.712 0.222-1.362 0.608-1.895 1.126-0.444 0.451-0.79 0.989-1.017 1.578-0.223 0.591-0.335 1.217-0.331 1.847-0.021 0.741 0.164 1.474 0.536 2.118s0.915 1.173 1.571 1.53c0.7 0.379 1.439 0.685 2.203 0.912 0.828 0.255 1.702 0.492 2.627 0.702s1.84 0.456 2.76 0.675c0.9 0.232 1.776 0.547 2.617 0.94 0.793 0.37 1.534 0.843 2.204 1.404 0.675 0.597 1.199 1.342 1.532 2.175 0.401 1.001 0.596 2.070 0.575 3.147 0 2.59-0.883 4.61-2.65 6.061s-4.22 2.175-7.36 2.175c-3.389 0.027-6.003-0.705-7.843-2.198s-2.86-3.735-3.059-6.726z"></path>
<path fill="#747474" style="fill: var(--color1, #747474)" d="M48.835 31.251v-29.186h3.533v14.009l14.633-14.009h4.558l-14.72 14.087 16.073 15.081h-4.885l-15.64-14.967v14.967l-3.551 0.018z"></path>
<path fill="#747474" style="fill: var(--color1, #747474)" d="M82.005 22.673h3.491c0.427 3.913 2.95 5.867 7.572 5.864 2 0 3.557-0.4 4.674-1.199s1.673-2.002 1.67-3.607c0.016-0.741-0.142-1.477-0.46-2.148-0.289-0.593-0.722-1.105-1.26-1.491-0.578-0.396-1.194-0.734-1.84-1.008-0.727-0.307-1.482-0.545-2.254-0.711-0.796-0.174-1.614-0.379-2.452-0.607l-2.475-0.679c-0.785-0.211-1.54-0.517-2.249-0.912-0.668-0.379-1.286-0.838-1.84-1.368-0.565-0.558-0.997-1.234-1.265-1.979-0.321-0.892-0.476-1.835-0.46-2.782 0-2.554 0.834-4.583 2.502-6.088s3.979-2.265 6.932-2.28c3.067 0 5.502 0.772 7.305 2.317s2.835 3.755 3.096 6.631h-3.551c-0.386-3.885-2.651-5.828-6.794-5.828-0.953-0.018-1.903 0.121-2.811 0.411-0.712 0.222-1.362 0.608-1.895 1.126-0.444 0.451-0.79 0.989-1.017 1.578-0.223 0.591-0.335 1.216-0.331 1.847-0.020 0.77 0.179 1.53 0.575 2.193 0.376 0.61 0.903 1.114 1.532 1.464 0.7 0.379 1.439 0.685 2.203 0.912 0.828 0.255 1.702 0.493 2.627 0.702s1.84 0.456 2.76 0.675c0.91 0.241 1.796 0.566 2.645 0.971 0.793 0.37 1.534 0.843 2.203 1.405 0.675 0.597 1.199 1.342 1.532 2.175 0.401 1.001 0.596 2.070 0.575 3.147 0 2.59-0.883 4.61-2.65 6.061s-4.22 2.175-7.36 2.175c-3.389 0-6.009-0.742-7.862-2.226s-2.875-3.73-3.068-6.74z"></path>
<path fill="#747474" style="fill: var(--color1, #747474)" d="M113.717 22.673h3.496c0.43 3.913 2.952 5.867 7.567 5.864 2.006 0 3.565-0.4 4.678-1.199s1.67-2.002 1.67-3.607c0.018-0.742-0.14-1.477-0.46-2.148-0.288-0.594-0.721-1.107-1.26-1.491-0.577-0.397-1.194-0.735-1.84-1.008-0.725-0.308-1.479-0.546-2.25-0.711-0.796-0.173-1.615-0.379-2.456-0.607l-2.475-0.679c-0.787-0.21-1.544-0.517-2.254-0.912-0.667-0.38-1.285-0.839-1.84-1.368-0.563-0.558-0.994-1.235-1.26-1.979-0.323-0.892-0.479-1.835-0.46-2.782 0-2.554 0.834-4.583 2.502-6.088s3.977-2.265 6.928-2.28c3.067 0 5.503 0.772 7.309 2.317s2.837 3.755 3.091 6.631h-3.528c-0.389-3.885-2.654-5.828-6.794-5.828-0.955-0.018-1.906 0.121-2.815 0.411-0.711 0.223-1.359 0.609-1.891 1.126-0.445 0.451-0.793 0.988-1.021 1.578-0.219 0.591-0.33 1.217-0.327 1.847-0.022 0.77 0.176 1.53 0.57 2.193 0.376 0.61 0.903 1.114 1.532 1.464 0.701 0.378 1.439 0.684 2.203 0.912 0.828 0.255 1.707 0.493 2.631 0.702s1.84 0.456 2.76 0.675c0.902 0.231 1.78 0.546 2.622 0.939 0.793 0.372 1.533 0.844 2.203 1.405 0.672 0.615 1.187 1.379 1.504 2.23 0.399 1.001 0.593 2.070 0.57 3.147 0 2.59-0.883 4.61-2.649 6.061s-4.22 2.175-7.36 2.175c-3.373 0-5.992-0.742-7.856-2.225s-2.878-3.738-3.041-6.763z"></path>
<path fill="#747474" style="fill: var(--color1, #747474)" d="M153.375 31.251v-26.126h-9.706v-3.042h22.94v3.042h-9.706v26.126h-3.528z"></path>
<path fill="#747474" style="fill: var(--color1, #747474)" d="M185.939 31.251l-11.409-29.186h3.745l9.103 23.937 9.14-23.937h3.725l-11.371 29.186h-2.933z"></path>
<path fill="#747474" style="fill: var(--color1, #747474)" d="M223.846 31.638c-4.157 0-7.513-1.368-10.075-4.104-2.56-2.736-3.833-6.345-3.818-10.826-0.058-2.707 0.529-5.39 1.712-7.83 1.083-2.198 2.788-4.037 4.904-5.295 2.231-1.229 4.741-1.874 7.29-1.874 2.552 0 5.061 0.645 7.294 1.874 2.117 1.255 3.824 3.095 4.907 5.295 1.143 2.454 1.737 5.126 1.737 7.83s-0.594 5.376-1.737 7.83c-1.086 2.187-2.793 4.012-4.907 5.249-2.222 1.264-4.746 1.905-7.306 1.852zM223.883 28.537c1.406 0.045 2.808-0.222 4.099-0.784s2.438-1.401 3.362-2.459c1.922-2.165 2.882-5.024 2.882-8.578s-0.96-6.427-2.882-8.619c-0.944-1.030-2.096-1.852-3.379-2.415-1.281-0.563-2.67-0.854-4.074-0.854s-2.79 0.291-4.074 0.854c-1.283 0.563-2.434 1.386-3.377 2.415-1.92 2.18-2.88 5.053-2.88 8.619s0.96 6.425 2.88 8.578c0.917 1.056 2.063 1.896 3.349 2.457 1.288 0.561 2.687 0.829 4.094 0.786z"></path>
<path fill="#747474" style="fill: var(--color1, #747474)" d="M249.193 29.003c-0.014-0.324 0.039-0.647 0.158-0.949 0.117-0.303 0.293-0.578 0.521-0.811 0.224-0.224 0.489-0.401 0.782-0.519 0.295-0.118 0.61-0.174 0.926-0.165 0.313-0.011 0.624 0.043 0.914 0.16s0.555 0.292 0.773 0.515c0.226 0.236 0.398 0.514 0.514 0.818 0.112 0.304 0.165 0.627 0.151 0.952 0.011 0.31-0.041 0.62-0.155 0.91s-0.286 0.553-0.51 0.773c-0.224 0.215-0.487 0.382-0.777 0.493s-0.599 0.162-0.91 0.15c-0.313 0.009-0.626-0.044-0.921-0.156-0.293-0.112-0.558-0.28-0.786-0.496-0.224-0.217-0.4-0.478-0.517-0.766s-0.174-0.598-0.162-0.908z"></path>
</symbol>
</defs>
</svg>
