<svg width="13" height="12" viewBox="0 0 13 12" fill="none" xmlns="http://www.w3.org/2000/svg">
<path d="M5.69748 0.891368C6.05972 0.132246 7.14028 0.132245 7.50251 0.891367L8.55517 3.09739C8.70096 3.40289 8.9914 3.61391 9.327 3.65815L11.7503 3.97759C12.5842 4.08752 12.9182 5.11519 12.3081 5.69428L10.5354 7.37711C10.2899 7.61017 10.1789 7.9516 10.2406 8.28445L10.6856 10.6879C10.8387 11.515 9.96455 12.1501 9.2253 11.7489L7.07702 10.5829C6.7795 10.4214 6.4205 10.4214 6.12298 10.5829L3.9747 11.7489C3.23545 12.1501 2.36125 11.515 2.5144 10.6879L2.95945 8.28445C3.02108 7.9516 2.91014 7.61017 2.66463 7.37711L0.891876 5.69428C0.281844 5.11519 0.615755 4.08752 1.44966 3.97759L3.873 3.65815C4.2086 3.61391 4.49904 3.40289 4.64483 3.09739L5.69748 0.891368Z" fill="#FBD344"/>
</svg>
